<svg version="1.1" id="Layer_1" xmlns="http://www.w3.org/2000/svg" xmlns:xlink="http://www.w3.org/1999/xlink" x="0px" y="0px"
	 width="100%" viewBox="0 0 267 213" enable-background="new 0 0 267 213" xml:space="preserve">
<path fill="#FFFEFE" opacity="1.000000" stroke="none" 
	d="
M188.000000,214.000000 
	C125.333336,214.000000 63.166668,214.000000 1.000000,214.000000 
	C1.000000,143.000000 1.000000,72.000000 1.000000,1.000000 
	C90.000000,1.000000 179.000000,1.000000 268.000000,1.000000 
	C268.000000,72.000000 268.000000,143.000000 268.000000,214.000000 
	C241.500000,214.000000 215.000000,214.000000 188.000000,214.000000 
M103.251907,194.273605 
	C118.906013,197.926163 133.332260,195.942825 145.987961,185.230911 
	C147.029984,184.348938 149.039444,183.917953 150.400421,184.208694 
	C170.436813,188.489273 185.671509,180.800156 197.313538,165.038834 
	C206.490753,152.614426 211.344620,138.247101 213.841034,123.122757 
	C216.770157,105.376884 214.661804,88.534203 203.553284,73.699631 
	C188.254898,53.269836 163.694611,50.424503 144.172226,66.847878 
	C141.365524,69.209045 139.897308,67.883911 138.066910,66.024399 
	C150.315704,48.559811 150.311981,24.331558 146.548264,5.490541 
	C133.624908,7.761940 123.725365,14.342895 117.496780,25.956894 
	C110.084610,39.777836 111.734276,53.186386 120.232826,65.920013 
	C111.662376,71.890846 100.270653,69.401367 95.022736,60.562344 
	C93.061157,57.258488 90.588844,55.336483 86.864494,57.298340 
	C83.173538,59.242603 83.228348,62.523048 84.767776,65.933548 
	C85.176331,66.838692 85.707123,67.697502 86.254478,68.529793 
	C92.292313,77.710823 104.798004,82.818909 116.099754,80.188164 
	C120.843262,79.084000 125.402672,75.365967 129.911789,75.585716 
	C134.507706,75.809685 138.929855,79.431259 143.446289,81.525978 
	C145.714096,82.577782 147.237885,82.138657 148.800949,79.826904 
	C158.215561,65.902832 175.853149,63.713387 188.686493,74.668701 
	C195.657059,80.619202 200.378204,88.108627 201.974350,97.014694 
	C206.210907,120.653549 199.883301,141.912354 185.852371,160.955765 
	C180.174622,168.661880 172.093750,173.509918 162.433426,173.578094 
	C156.358353,173.620956 150.267715,171.461151 144.305237,170.312836 
	C140.634125,173.493210 137.013702,177.943771 132.345444,180.414627 
	C120.757629,186.547882 108.414215,186.203964 97.458939,179.367310 
	C75.351807,165.571365 64.561630,144.556412 63.168293,118.963020 
	C62.539886,107.420235 69.562721,99.134628 80.872536,96.739624 
	C86.241585,95.602654 92.496620,95.123001 97.542183,96.790588 
	C105.624886,99.461975 113.125648,104.000237 120.689445,108.087936 
	C124.142532,109.954079 127.051056,110.367592 129.427734,106.986038 
	C131.670563,103.794884 130.553360,100.922859 127.630142,98.752121 
	C118.438248,91.926407 108.543663,86.566780 97.127174,84.477470 
	C69.484520,79.418655 48.437275,98.569542 51.971176,126.321358 
	C54.805618,148.580307 64.798973,167.686447 81.779037,182.398209 
	C87.639130,187.475479 95.515686,190.225403 103.251907,194.273605 
M112.978325,120.584877 
	C110.377808,114.495674 106.880188,112.608490 101.401077,114.338226 
	C95.371994,116.241592 93.938126,120.231155 96.152611,128.865158 
	C89.073387,134.864609 95.971016,140.314682 97.118355,145.811951 
	C97.496170,147.622192 100.825363,148.816452 102.805000,150.292358 
	C103.124420,149.937988 103.443832,149.583603 103.763252,149.229233 
	C106.538422,155.092484 110.256203,156.878860 115.643509,154.937637 
	C121.494217,152.829437 122.427795,149.575577 120.007164,138.527435 
	C130.539398,135.336182 141.125168,132.128708 151.895386,128.865341 
	C152.694580,130.547989 153.386475,131.668198 153.775070,132.885239 
	C154.996399,136.710297 157.751663,139.356110 161.499756,138.473404 
	C164.895218,137.673721 169.047073,135.727615 170.702454,132.982620 
	C172.850983,129.419937 170.318954,123.999405 173.928650,120.250931 
	C174.212479,119.956192 173.540939,118.723946 173.289871,117.934898 
	C172.482071,115.396217 171.604752,112.878021 170.862274,110.320564 
	C169.715973,106.372154 168.406601,102.746284 163.263428,105.256500 
	C162.759415,104.070862 162.493195,103.461411 162.240112,102.846558 
	C160.049942,97.525879 155.994690,95.689690 150.646729,97.599701 
	C145.385162,99.478851 143.329346,103.692963 145.110001,109.065414 
	C146.080414,111.993225 147.138947,114.891823 148.199112,117.921829 
	C137.034485,121.291428 126.433342,124.490959 115.686127,127.734573 
	C114.758766,125.337601 113.982643,123.331528 112.978325,120.584877 
z"/>
<path fill="#F97F44" opacity="1.000000" stroke="none" 
	d="
M102.861519,194.156021 
	C95.515686,190.225403 87.639130,187.475479 81.779037,182.398209 
	C64.798973,167.686447 54.805618,148.580307 51.971176,126.321358 
	C48.437275,98.569542 69.484520,79.418655 97.127174,84.477470 
	C108.543663,86.566780 118.438248,91.926407 127.630142,98.752121 
	C130.553360,100.922859 131.670563,103.794884 129.427734,106.986038 
	C127.051056,110.367592 124.142532,109.954079 120.689445,108.087936 
	C113.125648,104.000237 105.624886,99.461975 97.542183,96.790588 
	C92.496620,95.123001 86.241585,95.602654 80.872536,96.739624 
	C69.562721,99.134628 62.539886,107.420235 63.168293,118.963020 
	C64.561630,144.556412 75.351807,165.571365 97.458939,179.367310 
	C108.414215,186.203964 120.757629,186.547882 132.345444,180.414627 
	C137.013702,177.943771 140.634125,173.493210 144.305237,170.312836 
	C150.267715,171.461151 156.358353,173.620956 162.433426,173.578094 
	C172.093750,173.509918 180.174622,168.661880 185.852371,160.955765 
	C199.883301,141.912354 206.210907,120.653549 201.974350,97.014694 
	C200.378204,88.108627 195.657059,80.619202 188.686493,74.668701 
	C175.853149,63.713387 158.215561,65.902832 148.800949,79.826904 
	C147.237885,82.138657 145.714096,82.577782 143.446289,81.525978 
	C138.929855,79.431259 134.507706,75.809685 129.911789,75.585716 
	C125.402672,75.365967 120.843262,79.084000 116.099754,80.188164 
	C104.798004,82.818909 92.292313,77.710823 86.254478,68.529793 
	C85.707123,67.697502 85.176331,66.838692 84.767776,65.933548 
	C83.228348,62.523048 83.173538,59.242603 86.864494,57.298340 
	C90.588844,55.336483 93.061157,57.258488 95.022736,60.562344 
	C100.270653,69.401367 111.662376,71.890846 120.232826,65.920013 
	C111.734276,53.186386 110.084610,39.777836 117.496780,25.956894 
	C123.725365,14.342895 133.624908,7.761940 146.548264,5.490541 
	C150.311981,24.331558 150.315704,48.559811 138.066910,66.024399 
	C139.897308,67.883911 141.365524,69.209045 144.172226,66.847878 
	C163.694611,50.424503 188.254898,53.269836 203.553284,73.699631 
	C214.661804,88.534203 216.770157,105.376884 213.841034,123.122757 
	C211.344620,138.247101 206.490753,152.614426 197.313538,165.038834 
	C185.671509,180.800156 170.436813,188.489273 150.400421,184.208694 
	C149.039444,183.917953 147.029984,184.348938 145.987961,185.230911 
	C133.332260,195.942825 118.906013,197.926163 102.861519,194.156021 
M136.137070,22.071587 
	C123.750427,29.362732 120.348946,49.030014 129.759964,57.440525 
	C136.850906,46.650089 137.649323,34.719074 136.137070,22.071587 
z"/>
<path fill="#077C92" opacity="1.000000" stroke="none" 
	d="
M113.092422,120.955170 
	C113.982643,123.331528 114.758766,125.337601 115.686127,127.734573 
	C126.433342,124.490959 137.034485,121.291428 148.199112,117.921829 
	C147.138947,114.891823 146.080414,111.993225 145.110001,109.065414 
	C143.329346,103.692963 145.385162,99.478851 150.646729,97.599701 
	C155.994690,95.689690 160.049942,97.525879 162.240112,102.846558 
	C162.493195,103.461411 162.759415,104.070862 163.263428,105.256500 
	C168.406601,102.746284 169.715973,106.372154 170.862274,110.320564 
	C171.604752,112.878021 172.482071,115.396217 173.289871,117.934898 
	C173.540939,118.723946 174.212479,119.956192 173.928650,120.250931 
	C170.318954,123.999405 172.850983,129.419937 170.702454,132.982620 
	C169.047073,135.727615 164.895218,137.673721 161.499756,138.473404 
	C157.751663,139.356110 154.996399,136.710297 153.775070,132.885239 
	C153.386475,131.668198 152.694580,130.547989 151.895386,128.865341 
	C141.125168,132.128708 130.539398,135.336182 120.007164,138.527435 
	C122.427795,149.575577 121.494217,152.829437 115.643509,154.937637 
	C110.256203,156.878860 106.538422,155.092484 103.763252,149.229233 
	C103.443832,149.583603 103.124420,149.937988 102.805000,150.292358 
	C100.825363,148.816452 97.496170,147.622192 97.118355,145.811951 
	C95.971016,140.314682 89.073387,134.864609 96.152611,128.865158 
	C93.938126,120.231155 95.371994,116.241592 101.401077,114.338226 
	C106.880188,112.608490 110.377808,114.495674 113.092422,120.955170 
z"/>
<path fill="#FFF9F7" opacity="1.000000" stroke="none" 
	d="
M136.502426,22.261406 
	C137.649323,34.719074 136.850906,46.650089 129.759964,57.440525 
	C120.348946,49.030014 123.750427,29.362732 136.502426,22.261406 
z"/>
</svg>